<?xml version="1.0" encoding="UTF-8"?>
<svg id="Layer_2" data-name="Layer 2" xmlns="http://www.w3.org/2000/svg" viewBox="0 0 520.79 423.49">
  <defs>
    <style>
      .cls-1 {
        fill: #003467;
      }
    </style>
  </defs>
  <g id="Layer_1-2" data-name="Layer 1">
    <g>
      <g>
        <path class="cls-1" d="M24.86,416.61h-13.85l-2.8,6.48H0l14.6-31.3h6.48l14.65,31.3h-8.08l-2.8-6.48ZM22.24,410.48l-4.31-10.03-4.31,10.03h8.61Z"/>
        <path class="cls-1" d="M48.7,391.79h21.8v6.39h-13.76v5.77h12.87v6.39h-12.87v12.74h-8.04v-31.3Z"/>
        <path class="cls-1" d="M101.75,409.15v13.94h-8.17v-13.94l-13.14-17.36h9.19l7.99,10.88,8.08-10.88h9.28l-13.23,17.36Z"/>
        <path class="cls-1" d="M143.21,416.61h-13.85l-2.8,6.48h-8.21l14.6-31.3h6.48l14.65,31.3h-8.08l-2.8-6.48ZM140.59,410.48l-4.31-10.03-4.31,10.03h8.61Z"/>
        <path class="cls-1" d="M194.97,391.79v31.3h-6.04l-14.29-17.89v17.89h-7.59v-31.3h5.95l14.34,17.89v-17.89h7.64Z"/>
        <path class="cls-1" d="M232.79,416.61h-13.85l-2.8,6.48h-8.21l14.6-31.3h6.48l14.65,31.3h-8.08l-2.8-6.48ZM230.17,410.48l-4.31-10.03-4.31,10.03h8.61Z"/>
        <path class="cls-1" d="M256.63,391.79h8.17v24.68h13.32v6.61h-21.49v-31.3Z"/>
        <path class="cls-1" d="M303.2,409.15v13.94h-8.17v-13.94l-13.14-17.36h9.19l7.99,10.88,8.08-10.88h9.28l-13.23,17.36Z"/>
        <path class="cls-1" d="M335.47,398.41h-9.37v-6.61h26.99v6.61h-9.37v24.68h-8.26v-24.68Z"/>
        <path class="cls-1" d="M367.57,391.79h8.17v31.3h-8.17v-31.3Z"/>
        <path class="cls-1" d="M399.2,421.49c-2.41-1.33-4.26-3.21-5.55-5.64-1.29-2.43-1.93-5.24-1.93-8.43s.64-6,1.93-8.41c1.29-2.41,3.14-4.28,5.55-5.62,2.41-1.33,5.25-2,8.5-2,2.04,0,4.02.31,5.93.93,1.91.62,3.47,1.45,4.68,2.49l-2.53,5.77c-2.57-1.8-5.21-2.71-7.9-2.71-2.55,0-4.49.8-5.84,2.4-1.35,1.6-2.02,3.98-2.02,7.15s.67,5.56,2.02,7.17c1.35,1.61,3.29,2.42,5.84,2.42,2.69,0,5.33-.9,7.9-2.71l2.53,5.77c-1.21,1.04-2.77,1.86-4.68,2.49-1.91.62-3.88.93-5.93.93-3.26,0-6.09-.67-8.5-2Z"/>
        <path class="cls-1" d="M437.4,422.56c-2.28-.62-4.13-1.45-5.55-2.49l2.53-5.77c1.51.95,3.12,1.67,4.84,2.18,1.72.5,3.45.75,5.19.75s3.13-.24,4.06-.73c.93-.49,1.4-1.18,1.4-2.06,0-.8-.42-1.45-1.27-1.95-.84-.5-2.45-1.01-4.82-1.51-2.93-.62-5.22-1.36-6.88-2.22-1.66-.86-2.82-1.86-3.48-3.02-.67-1.15-1-2.57-1-4.26,0-1.92.54-3.65,1.62-5.17,1.08-1.52,2.6-2.72,4.57-3.6,1.97-.87,4.22-1.31,6.77-1.31,2.25,0,4.43.32,6.55.95,2.12.64,3.77,1.46,4.95,2.46l-2.49,5.77c-2.84-1.95-5.83-2.93-8.97-2.93-1.51,0-2.72.29-3.64.87-.92.58-1.38,1.34-1.38,2.29,0,.56.16,1.02.49,1.38.33.36.93.7,1.82,1.04.89.34,2.2.69,3.95,1.04,2.84.62,5.08,1.37,6.7,2.24,1.63.87,2.78,1.89,3.46,3.04.68,1.15,1.02,2.53,1.02,4.13,0,3.08-1.18,5.48-3.55,7.21-2.37,1.73-5.7,2.6-9.99,2.6-2.34,0-4.65-.31-6.93-.93Z"/>
      </g>
      <g>
        <rect class="cls-1" x="398.58" y="256.49" width="9.88" height="9.88"/>
        <rect class="cls-1" x="425.29" y="236.73" width="9.88" height="9.88"/>
        <rect class="cls-1" x="405.53" y="226.85" width="9.88" height="9.88"/>
        <polygon class="cls-1" points="428.59 296.01 435.17 296.01 435.17 286.13 425.29 286.13 425.29 291.25 418.71 291.25 418.71 301.13 428.59 301.13 428.59 296.01"/>
        <rect class="cls-1" x="385.78" y="246.61" width="9.88" height="9.88"/>
        <rect class="cls-1" x="382.48" y="220.27" width="11.34" height="11.34"/>
        <rect class="cls-1" x="382.48" y="197.22" width="9.88" height="9.88"/>
        <rect class="cls-1" x="366.02" y="190.63" width="6.59" height="6.59"/>
        <rect class="cls-1" x="389.07" y="174.53" width="6.59" height="6.59"/>
        <rect class="cls-1" x="451.64" y="338.82" width="6.59" height="6.59"/>
        <rect class="cls-1" x="401.88" y="163.92" width="6.59" height="6.59"/>
        <rect class="cls-1" x="467.74" y="158.07" width="6.59" height="6.59"/>
        <rect class="cls-1" x="494.45" y="140.87" width="6.59" height="6.59"/>
        <rect class="cls-1" x="505.06" y="122.57" width="6.59" height="6.59"/>
        <rect class="cls-1" x="402.24" y="144.16" width="6.59" height="6.59"/>
        <rect class="cls-1" x="408.46" y="121.48" width="10.25" height="10.25"/>
        <rect class="cls-1" x="390.17" y="112.7" width="6.95" height="6.95"/>
        <rect class="cls-1" x="389.07" y="88.18" width="6.59" height="6.59"/>
        <rect class="cls-1" x="435.17" y="117.82" width="6.59" height="6.59"/>
        <rect class="cls-1" x="478.35" y="62.57" width="6.59" height="6.59"/>
        <rect class="cls-1" x="514.2" y="104.65" width="6.59" height="6.59"/>
        <rect class="cls-1" x="454.93" y="130.99" width="9.88" height="9.88"/>
        <rect class="cls-1" x="472.49" y="104.65" width="6.59" height="6.59"/>
        <rect class="cls-1" x="366.02" y="145.63" width="6.59" height="6.59"/>
        <rect class="cls-1" x="359.43" y="127.7" width="6.59" height="6.59"/>
        <rect class="cls-1" x="342.97" y="25.61" width="6.59" height="6.59"/>
        <rect class="cls-1" x="366.02" y="82.69" width="6.59" height="6.59"/>
        <rect class="cls-1" x="372.6" y="68.42" width="6.59" height="6.59"/>
        <rect class="cls-1" x="401.88" y="43.54" width="6.59" height="6.59"/>
        <rect class="cls-1" x="381.02" y="50.13" width="6.59" height="6.59"/>
        <rect class="cls-1" x="407" y="64.4" width="6.59" height="6.59"/>
        <rect class="cls-1" x="403.7" y="27.81" width="6.59" height="6.59"/>
        <rect class="cls-1" x="465.17" y="14.64" width="6.59" height="6.59"/>
        <rect class="cls-1" x="488.23" width="6.59" height="6.59"/>
        <rect class="cls-1" x="499.2" y="13.17" width="6.59" height="6.59"/>
        <rect class="cls-1" x="431.15" y="13.17" width="6.59" height="6.59"/>
        <rect class="cls-1" x="333.09" y="130.99" width="6.59" height="6.59"/>
        <rect class="cls-1" x="316.99" y="111.23" width="6.59" height="6.59"/>
        <rect class="cls-1" x="368.94" y="34.39" width="6.59" height="6.59"/>
        <rect class="cls-1" x="310.04" y="91.84" width="6.59" height="6.59"/>
        <rect class="cls-1" x="272.71" y="62.57" width="6.59" height="6.59"/>
        <rect class="cls-1" x="280.03" y="85.25" width="6.59" height="6.59"/>
        <rect class="cls-1" x="292.47" y="88.18" width="6.59" height="6.59"/>
        <rect class="cls-1" x="303.45" y="41.71" width="6.59" height="6.59"/>
        <rect class="cls-1" x="403.7" y="187.34" width="11.71" height="11.71"/>
        <rect class="cls-1" x="437" y="171.24" width="11.34" height="11.34"/>
        <rect class="cls-1" x="454.93" y="197.22" width="9.88" height="9.88"/>
        <polygon class="cls-1" points="366.02 211.85 366.02 201.97 357.97 201.97 357.97 200.51 356.14 200.51 356.14 195.75 350.28 195.75 350.28 183.68 335.65 183.68 335.65 198.32 349.55 198.32 349.55 202.34 351.38 202.34 351.38 207.1 356.14 207.1 356.14 211.85 366.02 211.85"/>
        <rect class="cls-1" x="333.09" y="107.94" width="13.17" height="13.17"/>
        <rect class="cls-1" x="338.21" y="75.01" width="9.88" height="9.88"/>
        <rect class="cls-1" x="296.86" y="111.23" width="12.81" height="12.81"/>
        <polygon class="cls-1" points="292.47 112.7 292.47 102.82 282.59 102.82 282.59 95.86 273.81 95.86 273.81 104.65 282.59 104.65 282.59 112.7 292.47 112.7"/>
        <rect class="cls-1" x="292.47" y="68.42" width="9.88" height="9.88"/>
        <rect class="cls-1" x="329.79" y="41.71" width="9.88" height="9.88"/>
        <rect class="cls-1" x="312.6" y="64.4" width="13.9" height="13.9"/>
        <rect class="cls-1" x="352.85" y="171.24" width="9.88" height="9.88"/>
        <rect class="cls-1" x="344.8" y="142.33" width="12.81" height="12.81"/>
        <rect class="cls-1" x="369.31" y="167.21" width="9.88" height="9.88"/>
        <rect class="cls-1" x="382.48" y="147.46" width="9.88" height="9.88"/>
        <rect class="cls-1" x="353.94" y="94.77" width="13.17" height="13.17"/>
        <rect class="cls-1" x="374.43" y="122.94" width="11.34" height="11.34"/>
        <rect class="cls-1" x="425.29" y="137.58" width="12.44" height="12.44"/>
        <rect class="cls-1" x="408.83" y="98.06" width="13.17" height="13.17"/>
        <rect class="cls-1" x="415.05" y="75.74" width="13.54" height="13.54"/>
        <rect class="cls-1" x="438.46" y="85.99" width="9.88" height="9.88"/>
        <rect class="cls-1" x="435.54" y="48.66" width="9.88" height="9.88"/>
        <polygon class="cls-1" points="474.69 42.81 474.69 36.22 474.69 32.93 464.81 32.93 464.81 42.81 468.1 42.81 474.69 42.81"/>
        <rect class="cls-1" x="446.15" y="326.01" width="9.88" height="9.88"/>
        <polygon class="cls-1" points="438.46 316.13 438.46 311.38 428.59 311.38 428.59 321.26 436.27 321.26 436.27 326.01 446.15 326.01 446.15 316.13 438.46 316.13"/>
        <path class="cls-1" d="M413.22,304.42h-12.44v-12.44h4.88l-9.99-13.9h-10.26v-12.44h1.32l-5.52-7.68h-3.85v-4.76h2.93v-9.88h-9.59l-8.41-11.71h5.92v3.66h9.88v-9.88h-4.76v-8.42h-14.64v9.64l-2.56-3.57v12.22h-12.44v-12.44h12.28l-4.99-6.95h-.34v-.47l-9.65-13.43h-8.28v-8.42h2.24l-18.7-26.03v8.1h-8.42v-8.42h23.42v11.71h11.71v-7.68h9.88v-9.88h-9.88v5.85h-10.98v-13.54h4.02v-12.81h-12.81v9.88h-6.22v-11.34h.73v-3.66h6.22v-9.88h-9.88v3.66h-6.22v9.51h-8.78v4.54l-4.58-6.37h2.38v-12.81h-11.58l-2.63-3.66h-5.18v-7.21l-11.11-15.47h-7.18v-2.56h11.71v-12.07h2.2v5.12h6.59v-5.12h3.66v-12.44h-12.44v12.07h-12.44v3.99c-2.94-4.04-6.76-8-11.17-11.68h11.17v-12.44h-12.44v4.02h-9.15v-11.34h-12.44v5.75c-8.32-3.58-16.87-5.75-24.51-5.75h-34.76s76.81,123.88,79.18,127.95c3.92,6.4,3.92,21.98-13.28,23.72-10.05-.19-22.89,0-22.89,0l-76.3.17c-20.25,0-34.86,4.52-46.83,20.86L.36,365.1h64c20.25,0,32.69-13.29,44.77-29.54l43.99-57.9c6.76-8.47,37.2-41.75,73.11-5.36l49.66,61.29c11.92,16.37,38.04,31.47,58.29,31.58h40.61v-7.68h8.05v7.68h75.37l-45.01-62.65v1.92ZM358.7,241.49h5.12v5.12h-5.12v-5.12ZM349.55,249.91v9.51h-9.51v-9.51h9.51ZM335.65,209.66h5.12v5.12h-5.12v-5.12ZM306.74,236.37h16.83v16.83h-16.83v-16.83ZM322.11,230.88v-5.12h5.12v5.12h-5.12ZM313.33,205.63h12.44v12.44h-12.44v-12.44ZM311.86,191v5.12h-5.12v-5.12h5.12ZM315.52,156.97v9.54l-6.85-9.54h6.85ZM295.03,151.85h4.02v5.12h4.39v3.29h-8.42v-8.42ZM302.35,176.36v12.44h-12.44v-12.44h12.44ZM283.69,135.38h.37v1.83h8.05v6.59h-8.42v-8.42ZM270.88,123.67v8.42h-8.42v-8.42h8.42ZM247.1,133.55v-5.12h5.12v5.12h-5.12ZM266.86,159.53h-8.42v-8.42h8.42v8.42ZM263.57,103.91v10.61h-10.61v-10.61h10.61ZM253.32,84.16v7.32h-7.32v-7.32h7.32ZM242.71,113.06h-5.12v-5.12h5.12v5.12ZM268.32,261.98h-5.12v-5.12h5.12v5.12ZM272.35,143.43h-5.12v-5.12h5.12v5.12ZM281.86,277.35h-5.12v-5.12h5.12v5.12ZM284.42,240.03h-9.51v-9.51h9.51v9.51ZM284.79,170.14h-8.42v-8.42h8.42v8.42ZM295.4,256.86h-9.51v-9.51h9.51v9.51ZM306.74,286.13h-9.51v-9.51h9.51v9.51ZM308.21,267.47h-5.12v-5.12h5.12v5.12ZM333.45,279.54h-12.44v-12.44h12.44v12.44ZM336.75,239.3h-5.12v-5.12h5.12v5.12ZM347.36,293.45h-7.32v-7.32h7.32v7.32ZM356.14,306.25h-5.12v-5.12h5.12v5.12ZM356.87,283.93h-9.51v-9.51h9.51v9.51ZM358.7,255.03h12.44v12.44h-12.44v-12.44ZM375.53,274.42v5.12h-5.12v-5.12h5.12ZM360.89,320.16h5.12v5.12h-5.12v-5.12ZM374.07,342.48h-8.05v-8.05h8.05v8.05ZM368.58,313.94v-5.12h5.12v5.12h-5.12ZM377.36,296.74h-12.44v-12.44h12.44v12.44ZM385.41,303.69h5.12v5.12h-5.12v-5.12ZM390.53,342.84h-5.12v-5.12h5.12v5.12ZM392.36,325.65h-5.12v-5.12h5.12v5.12ZM393.46,284.3h5.12v5.12h-5.12v-5.12ZM400.41,360.04h-5.12v-5.12h5.12v5.12ZM424.93,339.92h5.12v5.12h-5.12v-5.12ZM415.78,336.26h-12.44v-12.44h12.44v12.44Z"/>
      </g>
    </g>
  </g>
</svg>