<?xml version="1.0" encoding="UTF-8"?>
<svg xmlns="http://www.w3.org/2000/svg" xmlns:xlink="http://www.w3.org/1999/xlink" width="80px" height="65px" viewBox="0 0 80 65" version="1.1">
<defs>
<linearGradient id="linear0" gradientUnits="userSpaceOnUse" x1="350.399994" y1="672.580017" x2="671.039978" y2="376.970001" gradientTransform="matrix(0.0975717,0,0,0.0976083,0,0.00521586)">
<stop offset="0" style="stop-color:rgb(4.705882%,54.117647%,92.156863%);stop-opacity:1;"/>
<stop offset="1" style="stop-color:rgb(4.313725%,72.54902%,62.352941%);stop-opacity:1;"/>
</linearGradient>
<linearGradient id="linear1" gradientUnits="userSpaceOnUse" x1="354.200012" y1="676.690002" x2="674.840027" y2="381.079987" gradientTransform="matrix(0.0975717,0,0,0.0976083,0,0.00521586)">
<stop offset="0" style="stop-color:rgb(4.705882%,54.117647%,92.156863%);stop-opacity:1;"/>
<stop offset="1" style="stop-color:rgb(4.313725%,72.54902%,62.352941%);stop-opacity:1;"/>
</linearGradient>
<linearGradient id="linear2" gradientUnits="userSpaceOnUse" x1="332.299988" y1="652.950012" x2="652.940002" y2="357.329987" gradientTransform="matrix(0.0975717,0,0,0.0976083,0,0.00521586)">
<stop offset="0" style="stop-color:rgb(4.705882%,54.117647%,92.156863%);stop-opacity:1;"/>
<stop offset="1" style="stop-color:rgb(4.313725%,72.54902%,62.352941%);stop-opacity:1;"/>
</linearGradient>
<linearGradient id="linear3" gradientUnits="userSpaceOnUse" x1="392.320007" y1="718.039978" x2="712.960022" y2="422.429993" gradientTransform="matrix(0.0975717,0,0,0.0976083,0,0.00521586)">
<stop offset="0" style="stop-color:rgb(4.705882%,54.117647%,92.156863%);stop-opacity:1;"/>
<stop offset="1" style="stop-color:rgb(4.313725%,72.54902%,62.352941%);stop-opacity:1;"/>
</linearGradient>
<linearGradient id="linear4" gradientUnits="userSpaceOnUse" x1="333.51001" y1="654.25" x2="654.140015" y2="358.640015" gradientTransform="matrix(0.0975717,0,0,0.0976083,0,0.00521586)">
<stop offset="0" style="stop-color:rgb(4.705882%,54.117647%,92.156863%);stop-opacity:1;"/>
<stop offset="1" style="stop-color:rgb(4.313725%,72.54902%,62.352941%);stop-opacity:1;"/>
</linearGradient>
<linearGradient id="linear5" gradientUnits="userSpaceOnUse" x1="311.709991" y1="630.609985" x2="632.349976" y2="334.98999" gradientTransform="matrix(0.0975717,0,0,0.0976083,0,0.00521586)">
<stop offset="0" style="stop-color:rgb(4.705882%,54.117647%,92.156863%);stop-opacity:1;"/>
<stop offset="1" style="stop-color:rgb(4.313725%,72.54902%,62.352941%);stop-opacity:1;"/>
</linearGradient>
<linearGradient id="linear6" gradientUnits="userSpaceOnUse" x1="292.649994" y1="609.940002" x2="613.289978" y2="314.320007" gradientTransform="matrix(0.0975717,0,0,0.0976083,0,0.00521586)">
<stop offset="0" style="stop-color:rgb(4.705882%,54.117647%,92.156863%);stop-opacity:1;"/>
<stop offset="1" style="stop-color:rgb(4.313725%,72.54902%,62.352941%);stop-opacity:1;"/>
</linearGradient>
<linearGradient id="linear7" gradientUnits="userSpaceOnUse" x1="273.220001" y1="588.859985" x2="593.859985" y2="293.25" gradientTransform="matrix(0.0975717,0,0,0.0976083,0,0.00521586)">
<stop offset="0" style="stop-color:rgb(4.705882%,54.117647%,92.156863%);stop-opacity:1;"/>
<stop offset="1" style="stop-color:rgb(4.313725%,72.54902%,62.352941%);stop-opacity:1;"/>
</linearGradient>
<linearGradient id="linear8" gradientUnits="userSpaceOnUse" x1="277.23999" y1="593.219971" x2="597.880005" y2="297.609985" gradientTransform="matrix(0.0975717,0,0,0.0976083,0,0.00521586)">
<stop offset="0" style="stop-color:rgb(4.705882%,54.117647%,92.156863%);stop-opacity:1;"/>
<stop offset="1" style="stop-color:rgb(4.313725%,72.54902%,62.352941%);stop-opacity:1;"/>
</linearGradient>
<linearGradient id="linear9" gradientUnits="userSpaceOnUse" x1="450.200012" y1="780.830017" x2="770.840027" y2="485.209991" gradientTransform="matrix(0.0975717,0,0,0.0976083,0,0.00521586)">
<stop offset="0" style="stop-color:rgb(4.705882%,54.117647%,92.156863%);stop-opacity:1;"/>
<stop offset="1" style="stop-color:rgb(4.313725%,72.54902%,62.352941%);stop-opacity:1;"/>
</linearGradient>
<linearGradient id="linear10" gradientUnits="userSpaceOnUse" x1="278.170013" y1="594.22998" x2="598.809998" y2="298.619995" gradientTransform="matrix(0.0975717,0,0,0.0976083,0,0.00521586)">
<stop offset="0" style="stop-color:rgb(4.705882%,54.117647%,92.156863%);stop-opacity:1;"/>
<stop offset="1" style="stop-color:rgb(4.313725%,72.54902%,62.352941%);stop-opacity:1;"/>
</linearGradient>
<linearGradient id="linear11" gradientUnits="userSpaceOnUse" x1="320.920013" y1="640.599976" x2="641.559998" y2="344.98999" gradientTransform="matrix(0.0975717,0,0,0.0976083,0,0.00521586)">
<stop offset="0" style="stop-color:rgb(4.705882%,54.117647%,92.156863%);stop-opacity:1;"/>
<stop offset="1" style="stop-color:rgb(4.313725%,72.54902%,62.352941%);stop-opacity:1;"/>
</linearGradient>
<linearGradient id="linear12" gradientUnits="userSpaceOnUse" x1="326.709991" y1="646.880005" x2="647.349976" y2="351.269989" gradientTransform="matrix(0.0975717,0,0,0.0976083,0,0.00521586)">
<stop offset="0" style="stop-color:rgb(4.705882%,54.117647%,92.156863%);stop-opacity:1;"/>
<stop offset="1" style="stop-color:rgb(4.313725%,72.54902%,62.352941%);stop-opacity:1;"/>
</linearGradient>
<linearGradient id="linear13" gradientUnits="userSpaceOnUse" x1="320.079987" y1="639.690002" x2="640.719971" y2="344.070007" gradientTransform="matrix(0.0975717,0,0,0.0976083,0,0.00521586)">
<stop offset="0" style="stop-color:rgb(4.705882%,54.117647%,92.156863%);stop-opacity:1;"/>
<stop offset="1" style="stop-color:rgb(4.313725%,72.54902%,62.352941%);stop-opacity:1;"/>
</linearGradient>
<linearGradient id="linear14" gradientUnits="userSpaceOnUse" x1="263.040009" y1="577.820007" x2="583.679993" y2="282.200012" gradientTransform="matrix(0.0975717,0,0,0.0976083,0,0.00521586)">
<stop offset="0" style="stop-color:rgb(4.705882%,54.117647%,92.156863%);stop-opacity:1;"/>
<stop offset="1" style="stop-color:rgb(4.313725%,72.54902%,62.352941%);stop-opacity:1;"/>
</linearGradient>
<linearGradient id="linear15" gradientUnits="userSpaceOnUse" x1="252.570007" y1="566.460022" x2="573.210022" y2="270.850006" gradientTransform="matrix(0.0975717,0,0,0.0976083,0,0.00521586)">
<stop offset="0" style="stop-color:rgb(4.705882%,54.117647%,92.156863%);stop-opacity:1;"/>
<stop offset="1" style="stop-color:rgb(4.313725%,72.54902%,62.352941%);stop-opacity:1;"/>
</linearGradient>
<linearGradient id="linear16" gradientUnits="userSpaceOnUse" x1="230.119995" y1="542.109985" x2="550.76001" y2="246.5" gradientTransform="matrix(0.0975717,0,0,0.0976083,0,0.00521586)">
<stop offset="0" style="stop-color:rgb(4.705882%,54.117647%,92.156863%);stop-opacity:1;"/>
<stop offset="1" style="stop-color:rgb(4.313725%,72.54902%,62.352941%);stop-opacity:1;"/>
</linearGradient>
<linearGradient id="linear17" gradientUnits="userSpaceOnUse" x1="209.949997" y1="520.23999" x2="530.590027" y2="224.619995" gradientTransform="matrix(0.0975717,0,0,0.0976083,0,0.00521586)">
<stop offset="0" style="stop-color:rgb(4.705882%,54.117647%,92.156863%);stop-opacity:1;"/>
<stop offset="1" style="stop-color:rgb(4.313725%,72.54902%,62.352941%);stop-opacity:1;"/>
</linearGradient>
<linearGradient id="linear18" gradientUnits="userSpaceOnUse" x1="266.170013" y1="581.210022" x2="586.809998" y2="285.600006" gradientTransform="matrix(0.0975717,0,0,0.0976083,0,0.00521586)">
<stop offset="0" style="stop-color:rgb(4.705882%,54.117647%,92.156863%);stop-opacity:1;"/>
<stop offset="1" style="stop-color:rgb(4.313725%,72.54902%,62.352941%);stop-opacity:1;"/>
</linearGradient>
<linearGradient id="linear19" gradientUnits="userSpaceOnUse" x1="254.130005" y1="568.159973" x2="574.77002" y2="272.540009" gradientTransform="matrix(0.0975717,0,0,0.0976083,0,0.00521586)">
<stop offset="0" style="stop-color:rgb(4.705882%,54.117647%,92.156863%);stop-opacity:1;"/>
<stop offset="1" style="stop-color:rgb(4.313725%,72.54902%,62.352941%);stop-opacity:1;"/>
</linearGradient>
<linearGradient id="linear20" gradientUnits="userSpaceOnUse" x1="312.679993" y1="631.659973" x2="633.320007" y2="336.049988" gradientTransform="matrix(0.0975717,0,0,0.0976083,0,0.00521586)">
<stop offset="0" style="stop-color:rgb(4.705882%,54.117647%,92.156863%);stop-opacity:1;"/>
<stop offset="1" style="stop-color:rgb(4.313725%,72.54902%,62.352941%);stop-opacity:1;"/>
</linearGradient>
<linearGradient id="linear21" gradientUnits="userSpaceOnUse" x1="293.089996" y1="610.409973" x2="613.72998" y2="314.799988" gradientTransform="matrix(0.0975717,0,0,0.0976083,0,0.00521586)">
<stop offset="0" style="stop-color:rgb(4.705882%,54.117647%,92.156863%);stop-opacity:1;"/>
<stop offset="1" style="stop-color:rgb(4.313725%,72.54902%,62.352941%);stop-opacity:1;"/>
</linearGradient>
<linearGradient id="linear22" gradientUnits="userSpaceOnUse" x1="282.709991" y1="599.159973" x2="603.349976" y2="303.549988" gradientTransform="matrix(0.0975717,0,0,0.0976083,0,0.00521586)">
<stop offset="0" style="stop-color:rgb(4.705882%,54.117647%,92.156863%);stop-opacity:1;"/>
<stop offset="1" style="stop-color:rgb(4.313725%,72.54902%,62.352941%);stop-opacity:1;"/>
</linearGradient>
<linearGradient id="linear23" gradientUnits="userSpaceOnUse" x1="238.149994" y1="550.830017" x2="558.789978" y2="255.210007" gradientTransform="matrix(0.0975717,0,0,0.0976083,0,0.00521586)">
<stop offset="0" style="stop-color:rgb(4.705882%,54.117647%,92.156863%);stop-opacity:1;"/>
<stop offset="1" style="stop-color:rgb(4.313725%,72.54902%,62.352941%);stop-opacity:1;"/>
</linearGradient>
<linearGradient id="linear24" gradientUnits="userSpaceOnUse" x1="219.449997" y1="530.539978" x2="540.090027" y2="234.929993" gradientTransform="matrix(0.0975717,0,0,0.0976083,0,0.00521586)">
<stop offset="0" style="stop-color:rgb(4.705882%,54.117647%,92.156863%);stop-opacity:1;"/>
<stop offset="1" style="stop-color:rgb(4.313725%,72.54902%,62.352941%);stop-opacity:1;"/>
</linearGradient>
<linearGradient id="linear25" gradientUnits="userSpaceOnUse" x1="128.080002" y1="431.429993" x2="448.720001" y2="135.820007" gradientTransform="matrix(0.0975717,0,0,0.0976083,0,0.00521586)">
<stop offset="0" style="stop-color:rgb(4.705882%,54.117647%,92.156863%);stop-opacity:1;"/>
<stop offset="1" style="stop-color:rgb(4.313725%,72.54902%,62.352941%);stop-opacity:1;"/>
</linearGradient>
<linearGradient id="linear26" gradientUnits="userSpaceOnUse" x1="189.119995" y1="497.640015" x2="509.75" y2="202.020004" gradientTransform="matrix(0.0975717,0,0,0.0976083,0,0.00521586)">
<stop offset="0" style="stop-color:rgb(4.705882%,54.117647%,92.156863%);stop-opacity:1;"/>
<stop offset="1" style="stop-color:rgb(4.313725%,72.54902%,62.352941%);stop-opacity:1;"/>
</linearGradient>
<linearGradient id="linear27" gradientUnits="userSpaceOnUse" x1="182.729996" y1="490.709991" x2="503.369995" y2="195.100006" gradientTransform="matrix(0.0975717,0,0,0.0976083,0,0.00521586)">
<stop offset="0" style="stop-color:rgb(4.705882%,54.117647%,92.156863%);stop-opacity:1;"/>
<stop offset="1" style="stop-color:rgb(4.313725%,72.54902%,62.352941%);stop-opacity:1;"/>
</linearGradient>
<linearGradient id="linear28" gradientUnits="userSpaceOnUse" x1="184.369995" y1="492.48999" x2="505.01001" y2="196.880005" gradientTransform="matrix(0.0975717,0,0,0.0976083,0,0.00521586)">
<stop offset="0" style="stop-color:rgb(4.705882%,54.117647%,92.156863%);stop-opacity:1;"/>
<stop offset="1" style="stop-color:rgb(4.313725%,72.54902%,62.352941%);stop-opacity:1;"/>
</linearGradient>
<linearGradient id="linear29" gradientUnits="userSpaceOnUse" x1="174.520004" y1="481.799988" x2="495.160004" y2="186.190002" gradientTransform="matrix(0.0975717,0,0,0.0976083,0,0.00521586)">
<stop offset="0" style="stop-color:rgb(4.705882%,54.117647%,92.156863%);stop-opacity:1;"/>
<stop offset="1" style="stop-color:rgb(4.313725%,72.54902%,62.352941%);stop-opacity:1;"/>
</linearGradient>
<linearGradient id="linear30" gradientUnits="userSpaceOnUse" x1="204.300003" y1="514.109985" x2="524.940002" y2="218.490005" gradientTransform="matrix(0.0975717,0,0,0.0976083,0,0.00521586)">
<stop offset="0" style="stop-color:rgb(4.705882%,54.117647%,92.156863%);stop-opacity:1;"/>
<stop offset="1" style="stop-color:rgb(4.313725%,72.54902%,62.352941%);stop-opacity:1;"/>
</linearGradient>
<linearGradient id="linear31" gradientUnits="userSpaceOnUse" x1="173.419998" y1="480.619995" x2="494.059998" y2="185" gradientTransform="matrix(0.0975717,0,0,0.0976083,0,0.00521586)">
<stop offset="0" style="stop-color:rgb(4.705882%,54.117647%,92.156863%);stop-opacity:1;"/>
<stop offset="1" style="stop-color:rgb(4.313725%,72.54902%,62.352941%);stop-opacity:1;"/>
</linearGradient>
<linearGradient id="linear32" gradientUnits="userSpaceOnUse" x1="207.320007" y1="517.380005" x2="527.960022" y2="221.770004" gradientTransform="matrix(0.0975717,0,0,0.0976083,0,0.00521586)">
<stop offset="0" style="stop-color:rgb(4.705882%,54.117647%,92.156863%);stop-opacity:1;"/>
<stop offset="1" style="stop-color:rgb(4.313725%,72.54902%,62.352941%);stop-opacity:1;"/>
</linearGradient>
<linearGradient id="linear33" gradientUnits="userSpaceOnUse" x1="212.479996" y1="522.969971" x2="533.109985" y2="227.360001" gradientTransform="matrix(0.0975717,0,0,0.0976083,0,0.00521586)">
<stop offset="0" style="stop-color:rgb(4.705882%,54.117647%,92.156863%);stop-opacity:1;"/>
<stop offset="1" style="stop-color:rgb(4.313725%,72.54902%,62.352941%);stop-opacity:1;"/>
</linearGradient>
<linearGradient id="linear34" gradientUnits="userSpaceOnUse" x1="230.630005" y1="542.659973" x2="551.26001" y2="247.050003" gradientTransform="matrix(0.0975717,0,0,0.0976083,0,0.00521586)">
<stop offset="0" style="stop-color:rgb(4.705882%,54.117647%,92.156863%);stop-opacity:1;"/>
<stop offset="1" style="stop-color:rgb(4.313725%,72.54902%,62.352941%);stop-opacity:1;"/>
</linearGradient>
<linearGradient id="linear35" gradientUnits="userSpaceOnUse" x1="181.729996" y1="489.630005" x2="502.369995" y2="194.020004" gradientTransform="matrix(0.0975717,0,0,0.0976083,0,0.00521586)">
<stop offset="0" style="stop-color:rgb(4.705882%,54.117647%,92.156863%);stop-opacity:1;"/>
<stop offset="1" style="stop-color:rgb(4.313725%,72.54902%,62.352941%);stop-opacity:1;"/>
</linearGradient>
<linearGradient id="linear36" gradientUnits="userSpaceOnUse" x1="203.089996" y1="512.799988" x2="523.72998" y2="217.179993" gradientTransform="matrix(0.0975717,0,0,0.0976083,0,0.00521586)">
<stop offset="0" style="stop-color:rgb(4.705882%,54.117647%,92.156863%);stop-opacity:1;"/>
<stop offset="1" style="stop-color:rgb(4.313725%,72.54902%,62.352941%);stop-opacity:1;"/>
</linearGradient>
<linearGradient id="linear37" gradientUnits="userSpaceOnUse" x1="176.130005" y1="483.549988" x2="496.769989" y2="187.940002" gradientTransform="matrix(0.0975717,0,0,0.0976083,0,0.00521586)">
<stop offset="0" style="stop-color:rgb(4.705882%,54.117647%,92.156863%);stop-opacity:1;"/>
<stop offset="1" style="stop-color:rgb(4.313725%,72.54902%,62.352941%);stop-opacity:1;"/>
</linearGradient>
<linearGradient id="linear38" gradientUnits="userSpaceOnUse" x1="153.580002" y1="459.100006" x2="474.220001" y2="163.479996" gradientTransform="matrix(0.0975717,0,0,0.0976083,0,0.00521586)">
<stop offset="0" style="stop-color:rgb(4.705882%,54.117647%,92.156863%);stop-opacity:1;"/>
<stop offset="1" style="stop-color:rgb(4.313725%,72.54902%,62.352941%);stop-opacity:1;"/>
</linearGradient>
<linearGradient id="linear39" gradientUnits="userSpaceOnUse" x1="156.029999" y1="461.75" x2="476.670013" y2="166.130005" gradientTransform="matrix(0.0975717,0,0,0.0976083,0,0.00521586)">
<stop offset="0" style="stop-color:rgb(4.705882%,54.117647%,92.156863%);stop-opacity:1;"/>
<stop offset="1" style="stop-color:rgb(4.313725%,72.54902%,62.352941%);stop-opacity:1;"/>
</linearGradient>
<linearGradient id="linear40" gradientUnits="userSpaceOnUse" x1="106.410004" y1="407.929993" x2="427.040009" y2="112.309998" gradientTransform="matrix(0.0975717,0,0,0.0976083,0,0.00521586)">
<stop offset="0" style="stop-color:rgb(4.705882%,54.117647%,92.156863%);stop-opacity:1;"/>
<stop offset="1" style="stop-color:rgb(4.313725%,72.54902%,62.352941%);stop-opacity:1;"/>
</linearGradient>
<linearGradient id="linear41" gradientUnits="userSpaceOnUse" x1="129.339996" y1="432.799988" x2="449.980011" y2="137.190002" gradientTransform="matrix(0.0975717,0,0,0.0976083,0,0.00521586)">
<stop offset="0" style="stop-color:rgb(4.705882%,54.117647%,92.156863%);stop-opacity:1;"/>
<stop offset="1" style="stop-color:rgb(4.313725%,72.54902%,62.352941%);stop-opacity:1;"/>
</linearGradient>
<linearGradient id="linear42" gradientUnits="userSpaceOnUse" x1="140.559998" y1="444.970001" x2="461.200012" y2="149.360001" gradientTransform="matrix(0.0975717,0,0,0.0976083,0,0.00521586)">
<stop offset="0" style="stop-color:rgb(4.705882%,54.117647%,92.156863%);stop-opacity:1;"/>
<stop offset="1" style="stop-color:rgb(4.313725%,72.54902%,62.352941%);stop-opacity:1;"/>
</linearGradient>
<linearGradient id="linear43" gradientUnits="userSpaceOnUse" x1="112.230003" y1="414.25" x2="432.869995" y2="118.629997" gradientTransform="matrix(0.0975717,0,0,0.0976083,0,0.00521586)">
<stop offset="0" style="stop-color:rgb(4.705882%,54.117647%,92.156863%);stop-opacity:1;"/>
<stop offset="1" style="stop-color:rgb(4.313725%,72.54902%,62.352941%);stop-opacity:1;"/>
</linearGradient>
<linearGradient id="linear44" gradientUnits="userSpaceOnUse" x1="301.570007" y1="619.609985" x2="622.210022" y2="324" gradientTransform="matrix(0.0975717,0,0,0.0976083,0,0.00521586)">
<stop offset="0" style="stop-color:rgb(4.705882%,54.117647%,92.156863%);stop-opacity:1;"/>
<stop offset="1" style="stop-color:rgb(4.313725%,72.54902%,62.352941%);stop-opacity:1;"/>
</linearGradient>
<linearGradient id="linear45" gradientUnits="userSpaceOnUse" x1="312.670013" y1="631.650024" x2="633.309998" y2="336.040009" gradientTransform="matrix(0.0975717,0,0,0.0976083,0,0.00521586)">
<stop offset="0" style="stop-color:rgb(4.705882%,54.117647%,92.156863%);stop-opacity:1;"/>
<stop offset="1" style="stop-color:rgb(4.313725%,72.54902%,62.352941%);stop-opacity:1;"/>
</linearGradient>
<linearGradient id="linear46" gradientUnits="userSpaceOnUse" x1="344.700012" y1="666.390015" x2="665.330017" y2="370.769989" gradientTransform="matrix(0.0975717,0,0,0.0976083,0,0.00521586)">
<stop offset="0" style="stop-color:rgb(4.705882%,54.117647%,92.156863%);stop-opacity:1;"/>
<stop offset="1" style="stop-color:rgb(4.313725%,72.54902%,62.352941%);stop-opacity:1;"/>
</linearGradient>
<linearGradient id="linear47" gradientUnits="userSpaceOnUse" x1="262.940002" y1="577.710022" x2="583.580017" y2="282.100006" gradientTransform="matrix(0.0975717,0,0,0.0976083,0,0.00521586)">
<stop offset="0" style="stop-color:rgb(4.705882%,54.117647%,92.156863%);stop-opacity:1;"/>
<stop offset="1" style="stop-color:rgb(4.313725%,72.54902%,62.352941%);stop-opacity:1;"/>
</linearGradient>
<linearGradient id="linear48" gradientUnits="userSpaceOnUse" x1="190.059998" y1="498.660004" x2="510.700012" y2="203.050003" gradientTransform="matrix(0.0975717,0,0,0.0976083,0,0.00521586)">
<stop offset="0" style="stop-color:rgb(4.705882%,54.117647%,92.156863%);stop-opacity:1;"/>
<stop offset="1" style="stop-color:rgb(4.313725%,72.54902%,62.352941%);stop-opacity:1;"/>
</linearGradient>
<linearGradient id="linear49" gradientUnits="userSpaceOnUse" x1="165.619995" y1="472.149994" x2="486.26001" y2="176.539993" gradientTransform="matrix(0.0975717,0,0,0.0976083,0,0.00521586)">
<stop offset="0" style="stop-color:rgb(4.705882%,54.117647%,92.156863%);stop-opacity:1;"/>
<stop offset="1" style="stop-color:rgb(4.313725%,72.54902%,62.352941%);stop-opacity:1;"/>
</linearGradient>
<linearGradient id="linear50" gradientUnits="userSpaceOnUse" x1="166.330002" y1="472.920013" x2="486.970001" y2="177.309998" gradientTransform="matrix(0.0975717,0,0,0.0976083,0,0.00521586)">
<stop offset="0" style="stop-color:rgb(4.705882%,54.117647%,92.156863%);stop-opacity:1;"/>
<stop offset="1" style="stop-color:rgb(4.313725%,72.54902%,62.352941%);stop-opacity:1;"/>
</linearGradient>
<linearGradient id="linear51" gradientUnits="userSpaceOnUse" x1="141.470001" y1="445.959991" x2="462.109985" y2="150.339996" gradientTransform="matrix(0.0975717,0,0,0.0976083,0,0.00521586)">
<stop offset="0" style="stop-color:rgb(4.705882%,54.117647%,92.156863%);stop-opacity:1;"/>
<stop offset="1" style="stop-color:rgb(4.313725%,72.54902%,62.352941%);stop-opacity:1;"/>
</linearGradient>
<linearGradient id="linear52" gradientUnits="userSpaceOnUse" x1="127.629997" y1="430.940002" x2="448.269989" y2="135.330002" gradientTransform="matrix(0.0975717,0,0,0.0976083,0,0.00521586)">
<stop offset="0" style="stop-color:rgb(4.705882%,54.117647%,92.156863%);stop-opacity:1;"/>
<stop offset="1" style="stop-color:rgb(4.313725%,72.54902%,62.352941%);stop-opacity:1;"/>
</linearGradient>
<linearGradient id="linear53" gradientUnits="userSpaceOnUse" x1="133.630005" y1="437.450012" x2="454.269989" y2="141.839996" gradientTransform="matrix(0.0975717,0,0,0.0976083,0,0.00521586)">
<stop offset="0" style="stop-color:rgb(4.705882%,54.117647%,92.156863%);stop-opacity:1;"/>
<stop offset="1" style="stop-color:rgb(4.313725%,72.54902%,62.352941%);stop-opacity:1;"/>
</linearGradient>
<linearGradient id="linear54" gradientUnits="userSpaceOnUse" x1="141.960007" y1="446.48999" x2="462.600006" y2="150.880005" gradientTransform="matrix(0.0975717,0,0,0.0976083,0,0.00521586)">
<stop offset="0" style="stop-color:rgb(4.705882%,54.117647%,92.156863%);stop-opacity:1;"/>
<stop offset="1" style="stop-color:rgb(4.313725%,72.54902%,62.352941%);stop-opacity:1;"/>
</linearGradient>
<linearGradient id="linear55" gradientUnits="userSpaceOnUse" x1="251.119995" y1="564.890015" x2="571.75" y2="269.269989" gradientTransform="matrix(0.0975717,0,0,0.0976083,0,0.00521586)">
<stop offset="0" style="stop-color:rgb(4.705882%,54.117647%,92.156863%);stop-opacity:1;"/>
<stop offset="1" style="stop-color:rgb(4.313725%,72.54902%,62.352941%);stop-opacity:1;"/>
</linearGradient>
<linearGradient id="linear56" gradientUnits="userSpaceOnUse" x1="225" y1="536.559998" x2="545.640015" y2="240.949997" gradientTransform="matrix(0.0975717,0,0,0.0976083,0,0.00521586)">
<stop offset="0" style="stop-color:rgb(4.705882%,54.117647%,92.156863%);stop-opacity:1;"/>
<stop offset="1" style="stop-color:rgb(4.313725%,72.54902%,62.352941%);stop-opacity:1;"/>
</linearGradient>
<linearGradient id="linear57" gradientUnits="userSpaceOnUse" x1="259.809998" y1="574.309998" x2="580.450012" y2="278.700012" gradientTransform="matrix(0.0975717,0,0,0.0976083,0,0.00521586)">
<stop offset="0" style="stop-color:rgb(4.705882%,54.117647%,92.156863%);stop-opacity:1;"/>
<stop offset="1" style="stop-color:rgb(4.313725%,72.54902%,62.352941%);stop-opacity:1;"/>
</linearGradient>
<linearGradient id="linear58" gradientUnits="userSpaceOnUse" x1="253.869995" y1="567.880005" x2="574.51001" y2="272.269989" gradientTransform="matrix(0.0975717,0,0,0.0976083,0,0.00521586)">
<stop offset="0" style="stop-color:rgb(4.705882%,54.117647%,92.156863%);stop-opacity:1;"/>
<stop offset="1" style="stop-color:rgb(4.313725%,72.54902%,62.352941%);stop-opacity:1;"/>
</linearGradient>
<linearGradient id="linear59" gradientUnits="userSpaceOnUse" x1="194.779999" y1="503.779999" x2="515.419983" y2="208.169998" gradientTransform="matrix(0.0975717,0,0,0.0976083,0,0.00521586)">
<stop offset="0" style="stop-color:rgb(4.705882%,54.117647%,92.156863%);stop-opacity:1;"/>
<stop offset="1" style="stop-color:rgb(4.313725%,72.54902%,62.352941%);stop-opacity:1;"/>
</linearGradient>
<linearGradient id="linear60" gradientUnits="userSpaceOnUse" x1="230.089996" y1="542.080017" x2="550.719971" y2="246.460007" gradientTransform="matrix(0.0975717,0,0,0.0976083,0,0.00521586)">
<stop offset="0" style="stop-color:rgb(4.705882%,54.117647%,92.156863%);stop-opacity:1;"/>
<stop offset="1" style="stop-color:rgb(4.313725%,72.54902%,62.352941%);stop-opacity:1;"/>
</linearGradient>
<linearGradient id="linear61" gradientUnits="userSpaceOnUse" x1="278.850006" y1="594.969971" x2="599.48999" y2="299.350006" gradientTransform="matrix(0.0975717,0,0,0.0976083,0,0.00521586)">
<stop offset="0" style="stop-color:rgb(4.705882%,54.117647%,92.156863%);stop-opacity:1;"/>
<stop offset="1" style="stop-color:rgb(4.313725%,72.54902%,62.352941%);stop-opacity:1;"/>
</linearGradient>
<linearGradient id="linear62" gradientUnits="userSpaceOnUse" x1="236.779999" y1="549.330017" x2="557.419983" y2="253.720001" gradientTransform="matrix(0.0975717,0,0,0.0976083,0,0.00521586)">
<stop offset="0" style="stop-color:rgb(4.705882%,54.117647%,92.156863%);stop-opacity:1;"/>
<stop offset="1" style="stop-color:rgb(4.313725%,72.54902%,62.352941%);stop-opacity:1;"/>
</linearGradient>
<linearGradient id="linear63" gradientUnits="userSpaceOnUse" x1="224.130005" y1="535.609985" x2="544.77002" y2="240" gradientTransform="matrix(0.0975717,0,0,0.0976083,0,0.00521586)">
<stop offset="0" style="stop-color:rgb(4.705882%,54.117647%,92.156863%);stop-opacity:1;"/>
<stop offset="1" style="stop-color:rgb(4.313725%,72.54902%,62.352941%);stop-opacity:1;"/>
</linearGradient>
<linearGradient id="linear64" gradientUnits="userSpaceOnUse" x1="246.190002" y1="559.549988" x2="566.830017" y2="263.929993" gradientTransform="matrix(0.0975717,0,0,0.0976083,0,0.00521586)">
<stop offset="0" style="stop-color:rgb(4.705882%,54.117647%,92.156863%);stop-opacity:1;"/>
<stop offset="1" style="stop-color:rgb(4.313725%,72.54902%,62.352941%);stop-opacity:1;"/>
</linearGradient>
<linearGradient id="linear65" gradientUnits="userSpaceOnUse" x1="215.009995" y1="525.719971" x2="535.650024" y2="230.110001" gradientTransform="matrix(0.0975717,0,0,0.0976083,0,0.00521586)">
<stop offset="0" style="stop-color:rgb(4.705882%,54.117647%,92.156863%);stop-opacity:1;"/>
<stop offset="1" style="stop-color:rgb(4.313725%,72.54902%,62.352941%);stop-opacity:1;"/>
</linearGradient>
<linearGradient id="linear66" gradientUnits="userSpaceOnUse" x1="223.779999" y1="535.22998" x2="544.419983" y2="239.619995" gradientTransform="matrix(0.0975717,0,0,0.0976083,0,0.00521586)">
<stop offset="0" style="stop-color:rgb(4.705882%,54.117647%,92.156863%);stop-opacity:1;"/>
<stop offset="1" style="stop-color:rgb(4.313725%,72.54902%,62.352941%);stop-opacity:1;"/>
</linearGradient>
<linearGradient id="linear67" gradientUnits="userSpaceOnUse" x1="438.75" y1="768.400024" x2="759.390015" y2="472.790009" gradientTransform="matrix(0.0975717,0,0,0.0976083,0,0.00521586)">
<stop offset="0" style="stop-color:rgb(4.705882%,54.117647%,92.156863%);stop-opacity:1;"/>
<stop offset="1" style="stop-color:rgb(4.313725%,72.54902%,62.352941%);stop-opacity:1;"/>
</linearGradient>
<linearGradient id="linear68" gradientUnits="userSpaceOnUse" x1="419.339996" y1="747.349976" x2="739.97998" y2="451.73999" gradientTransform="matrix(0.0975717,0,0,0.0976083,0,0.00521586)">
<stop offset="0" style="stop-color:rgb(4.705882%,54.117647%,92.156863%);stop-opacity:1;"/>
<stop offset="1" style="stop-color:rgb(4.313725%,72.54902%,62.352941%);stop-opacity:1;"/>
</linearGradient>
<linearGradient id="linear69" gradientUnits="userSpaceOnUse" x1="244.649994" y1="557.880005" x2="565.289978" y2="262.26001" gradientTransform="matrix(0.0975717,0,0,0.0976083,0,0.00521586)">
<stop offset="0" style="stop-color:rgb(4.705882%,54.117647%,92.156863%);stop-opacity:1;"/>
<stop offset="1" style="stop-color:rgb(4.313725%,72.54902%,62.352941%);stop-opacity:1;"/>
</linearGradient>
</defs>
<g id="surface1">
<path style=" stroke:none;fill-rule:nonzero;fill:url(#linear0);" d="M 61.355469 39.152344 L 62.863281 39.152344 L 62.863281 40.660156 L 61.355469 40.660156 Z M 61.355469 39.152344 "/>
<path style=" stroke:none;fill-rule:nonzero;fill:url(#linear1);" d="M 65.429688 36.136719 L 66.9375 36.136719 L 66.9375 37.644531 L 65.429688 37.644531 Z M 65.429688 36.136719 "/>
<path style=" stroke:none;fill-rule:nonzero;fill:url(#linear2);" d="M 62.414062 34.625 L 63.921875 34.625 L 63.921875 36.136719 L 62.414062 36.136719 Z M 62.414062 34.625 "/>
<path style=" stroke:none;fill-rule:nonzero;fill:url(#linear3);" d="M 65.933594 45.179688 L 66.9375 45.179688 L 66.9375 43.675781 L 65.429688 43.675781 L 65.429688 44.457031 L 64.425781 44.457031 L 64.425781 45.964844 L 65.933594 45.964844 Z M 65.933594 45.179688 "/>
<path style=" stroke:none;fill-rule:nonzero;fill:url(#linear4);" d="M 59.402344 37.644531 L 60.910156 37.644531 L 60.910156 39.152344 L 59.402344 39.152344 Z M 59.402344 37.644531 "/>
<path style=" stroke:none;fill-rule:nonzero;fill:url(#linear5);" d="M 58.898438 33.621094 L 60.628906 33.621094 L 60.628906 35.355469 L 58.898438 35.355469 Z M 58.898438 33.621094 "/>
<path style=" stroke:none;fill-rule:nonzero;fill:url(#linear6);" d="M 58.898438 30.105469 L 60.40625 30.105469 L 60.40625 31.613281 L 58.898438 31.613281 Z M 58.898438 30.105469 "/>
<path style=" stroke:none;fill-rule:nonzero;fill:url(#linear7);" d="M 56.386719 29.097656 L 57.394531 29.097656 L 57.394531 30.105469 L 56.386719 30.105469 Z M 56.386719 29.097656 "/>
<path style=" stroke:none;fill-rule:nonzero;fill:url(#linear8);" d="M 59.902344 26.640625 L 60.910156 26.640625 L 60.910156 27.648438 L 59.902344 27.648438 Z M 59.902344 26.640625 "/>
<path style=" stroke:none;fill-rule:nonzero;fill:url(#linear9);" d="M 69.449219 51.714844 L 70.453125 51.714844 L 70.453125 52.71875 L 69.449219 52.71875 Z M 69.449219 51.714844 "/>
<path style=" stroke:none;fill-rule:nonzero;fill:url(#linear10);" d="M 61.859375 25.023438 L 62.863281 25.023438 L 62.863281 26.027344 L 61.859375 26.027344 Z M 61.859375 25.023438 "/>
<path style=" stroke:none;fill-rule:nonzero;fill:url(#linear11);" d="M 71.90625 24.128906 L 72.910156 24.128906 L 72.910156 25.132812 L 71.90625 25.132812 Z M 71.90625 24.128906 "/>
<path style=" stroke:none;fill-rule:nonzero;fill:url(#linear12);" d="M 75.980469 21.503906 L 76.984375 21.503906 L 76.984375 22.511719 L 75.980469 22.511719 Z M 75.980469 21.503906 "/>
<path style=" stroke:none;fill-rule:nonzero;fill:url(#linear13);" d="M 77.601562 18.710938 L 78.605469 18.710938 L 78.605469 19.71875 L 77.601562 19.71875 Z M 77.601562 18.710938 "/>
<path style=" stroke:none;fill-rule:nonzero;fill:url(#linear14);" d="M 61.914062 22.007812 L 62.917969 22.007812 L 62.917969 23.011719 L 61.914062 23.011719 Z M 61.914062 22.007812 "/>
<path style=" stroke:none;fill-rule:nonzero;fill:url(#linear15);" d="M 62.863281 18.546875 L 64.425781 18.546875 L 64.425781 20.109375 L 62.863281 20.109375 Z M 62.863281 18.546875 "/>
<path style=" stroke:none;fill-rule:nonzero;fill:url(#linear16);" d="M 60.070312 17.203125 L 61.132812 17.203125 L 61.132812 18.265625 L 60.070312 18.265625 Z M 60.070312 17.203125 "/>
<path style=" stroke:none;fill-rule:nonzero;fill:url(#linear17);" d="M 59.902344 13.464844 L 60.910156 13.464844 L 60.910156 14.46875 L 59.902344 14.46875 Z M 59.902344 13.464844 "/>
<path style=" stroke:none;fill-rule:nonzero;fill:url(#linear18);" d="M 66.9375 17.988281 L 67.941406 17.988281 L 67.941406 18.992188 L 66.9375 18.992188 Z M 66.9375 17.988281 "/>
<path style=" stroke:none;fill-rule:nonzero;fill:url(#linear19);" d="M 73.523438 9.554688 L 74.527344 9.554688 L 74.527344 10.558594 L 73.523438 10.558594 Z M 73.523438 9.554688 "/>
<path style=" stroke:none;fill-rule:nonzero;fill:url(#linear20);" d="M 78.996094 15.976562 L 80 15.976562 L 80 16.980469 L 78.996094 16.980469 Z M 78.996094 15.976562 "/>
<path style=" stroke:none;fill-rule:nonzero;fill:url(#linear21);" d="M 69.953125 19.996094 L 71.460938 19.996094 L 71.460938 21.503906 L 69.953125 21.503906 Z M 69.953125 19.996094 "/>
<path style=" stroke:none;fill-rule:nonzero;fill:url(#linear22);" d="M 72.632812 15.976562 L 73.636719 15.976562 L 73.636719 16.980469 L 72.632812 16.980469 Z M 72.632812 15.976562 "/>
<path style=" stroke:none;fill-rule:nonzero;fill:url(#linear23);" d="M 56.386719 22.230469 L 57.394531 22.230469 L 57.394531 23.234375 L 56.386719 23.234375 Z M 56.386719 22.230469 "/>
<path style=" stroke:none;fill-rule:nonzero;fill:url(#linear24);" d="M 55.382812 19.492188 L 56.386719 19.492188 L 56.386719 20.5 L 55.382812 20.5 Z M 55.382812 19.492188 "/>
<path style=" stroke:none;fill-rule:nonzero;fill:url(#linear25);" d="M 52.871094 3.914062 L 53.875 3.914062 L 53.875 4.917969 L 52.871094 4.917969 Z M 52.871094 3.914062 "/>
<path style=" stroke:none;fill-rule:nonzero;fill:url(#linear26);" d="M 56.386719 12.625 L 57.394531 12.625 L 57.394531 13.632812 L 56.386719 13.632812 Z M 56.386719 12.625 "/>
<path style=" stroke:none;fill-rule:nonzero;fill:url(#linear27);" d="M 57.390625 10.449219 L 58.398438 10.449219 L 58.398438 11.453125 L 57.390625 11.453125 Z M 57.390625 10.449219 "/>
<path style=" stroke:none;fill-rule:nonzero;fill:url(#linear28);" d="M 61.859375 6.648438 L 62.863281 6.648438 L 62.863281 7.65625 L 61.859375 7.65625 Z M 61.859375 6.648438 "/>
<path style=" stroke:none;fill-rule:nonzero;fill:url(#linear29);" d="M 58.675781 7.65625 L 59.679688 7.65625 L 59.679688 8.660156 L 58.675781 8.660156 Z M 58.675781 7.65625 "/>
<path style=" stroke:none;fill-rule:nonzero;fill:url(#linear30);" d="M 62.640625 9.832031 L 63.644531 9.832031 L 63.644531 10.839844 L 62.640625 10.839844 Z M 62.640625 9.832031 "/>
<path style=" stroke:none;fill-rule:nonzero;fill:url(#linear31);" d="M 62.136719 4.25 L 63.140625 4.25 L 63.140625 5.253906 L 62.136719 5.253906 Z M 62.136719 4.25 "/>
<path style=" stroke:none;fill-rule:nonzero;fill:url(#linear32);" d="M 71.515625 2.238281 L 72.519531 2.238281 L 72.519531 3.242188 L 71.515625 3.242188 Z M 71.515625 2.238281 "/>
<path style=" stroke:none;fill-rule:nonzero;fill:url(#linear33);" d="M 75.03125 0.00390625 L 76.035156 0.00390625 L 76.035156 1.011719 L 75.03125 1.011719 Z M 75.03125 0.00390625 "/>
<path style=" stroke:none;fill-rule:nonzero;fill:url(#linear34);" d="M 76.707031 2.015625 L 77.710938 2.015625 L 77.710938 3.019531 L 76.707031 3.019531 Z M 76.707031 2.015625 "/>
<path style=" stroke:none;fill-rule:nonzero;fill:url(#linear35);" d="M 66.324219 2.015625 L 67.328125 2.015625 L 67.328125 3.019531 L 66.324219 3.019531 Z M 66.324219 2.015625 "/>
<path style=" stroke:none;fill-rule:nonzero;fill:url(#linear36);" d="M 51.363281 19.996094 L 52.367188 19.996094 L 52.367188 21 L 51.363281 21 Z M 51.363281 19.996094 "/>
<path style=" stroke:none;fill-rule:nonzero;fill:url(#linear37);" d="M 48.90625 16.980469 L 49.910156 16.980469 L 49.910156 17.988281 L 48.90625 17.988281 Z M 48.90625 16.980469 "/>
<path style=" stroke:none;fill-rule:nonzero;fill:url(#linear38);" d="M 56.832031 5.253906 L 57.839844 5.253906 L 57.839844 6.261719 L 56.832031 6.261719 Z M 56.832031 5.253906 "/>
<path style=" stroke:none;fill-rule:nonzero;fill:url(#linear39);" d="M 47.847656 14.023438 L 48.851562 14.023438 L 48.851562 15.027344 L 47.847656 15.027344 Z M 47.847656 14.023438 "/>
<path style=" stroke:none;fill-rule:nonzero;fill:url(#linear40);" d="M 42.152344 9.554688 L 43.15625 9.554688 L 43.15625 10.558594 L 42.152344 10.558594 Z M 42.152344 9.554688 "/>
<path style=" stroke:none;fill-rule:nonzero;fill:url(#linear41);" d="M 43.269531 13.015625 L 44.273438 13.015625 L 44.273438 14.023438 L 43.269531 14.023438 Z M 43.269531 13.015625 "/>
<path style=" stroke:none;fill-rule:nonzero;fill:url(#linear42);" d="M 45.167969 13.464844 L 46.171875 13.464844 L 46.171875 14.46875 L 45.167969 14.46875 Z M 45.167969 13.464844 "/>
<path style=" stroke:none;fill-rule:nonzero;fill:url(#linear43);" d="M 46.84375 6.371094 L 47.847656 6.371094 L 47.847656 7.375 L 46.84375 7.375 Z M 46.84375 6.371094 "/>
<path style=" stroke:none;fill-rule:nonzero;fill:url(#linear44);" d="M 62.136719 28.597656 L 63.921875 28.597656 L 63.921875 30.382812 L 62.136719 30.382812 Z M 62.136719 28.597656 "/>
<path style=" stroke:none;fill-rule:nonzero;fill:url(#linear45);" d="M 67.214844 26.140625 L 68.945312 26.140625 L 68.945312 27.871094 L 67.214844 27.871094 Z M 67.214844 26.140625 "/>
<path style=" stroke:none;fill-rule:nonzero;fill:url(#linear46);" d="M 69.953125 30.105469 L 71.460938 30.105469 L 71.460938 31.613281 L 69.953125 31.613281 Z M 69.953125 30.105469 "/>
<path style=" stroke:none;fill-rule:nonzero;fill:url(#linear47);" d="M 56.386719 32.339844 L 56.386719 30.828125 L 55.160156 30.828125 L 55.160156 30.605469 L 54.878906 30.605469 L 54.878906 29.882812 L 53.988281 29.882812 L 53.988281 28.039062 L 51.753906 28.039062 L 51.753906 30.273438 L 53.875 30.273438 L 53.875 30.886719 L 54.152344 30.886719 L 54.152344 31.613281 L 54.878906 31.613281 L 54.878906 32.339844 Z M 56.386719 32.339844 "/>
<path style=" stroke:none;fill-rule:nonzero;fill:url(#linear48);" d="M 51.363281 16.480469 L 53.375 16.480469 L 53.375 18.488281 L 51.363281 18.488281 Z M 51.363281 16.480469 "/>
<path style=" stroke:none;fill-rule:nonzero;fill:url(#linear49);" d="M 52.144531 11.453125 L 53.652344 11.453125 L 53.652344 12.960938 L 52.144531 12.960938 Z M 52.144531 11.453125 "/>
<path style=" stroke:none;fill-rule:nonzero;fill:url(#linear50);" d="M 45.835938 16.980469 L 47.789062 16.980469 L 47.789062 18.933594 L 45.835938 18.933594 Z M 45.835938 16.980469 "/>
<path style=" stroke:none;fill-rule:nonzero;fill:url(#linear51);" d="M 45.167969 17.203125 L 45.167969 15.695312 L 43.660156 15.695312 L 43.660156 14.636719 L 42.320312 14.636719 L 42.320312 15.976562 L 43.660156 15.976562 L 43.660156 17.203125 Z M 45.167969 17.203125 "/>
<path style=" stroke:none;fill-rule:nonzero;fill:url(#linear52);" d="M 45.167969 10.449219 L 46.675781 10.449219 L 46.675781 11.957031 L 45.167969 11.957031 Z M 45.167969 10.449219 "/>
<path style=" stroke:none;fill-rule:nonzero;fill:url(#linear53);" d="M 50.859375 6.371094 L 52.367188 6.371094 L 52.367188 7.878906 L 50.859375 7.878906 Z M 50.859375 6.371094 "/>
<path style=" stroke:none;fill-rule:nonzero;fill:url(#linear54);" d="M 48.238281 9.832031 L 50.359375 9.832031 L 50.359375 11.957031 L 48.238281 11.957031 Z M 48.238281 9.832031 "/>
<path style=" stroke:none;fill-rule:nonzero;fill:url(#linear55);" d="M 54.378906 26.140625 L 55.886719 26.140625 L 55.886719 27.648438 L 54.378906 27.648438 Z M 54.378906 26.140625 "/>
<path style=" stroke:none;fill-rule:nonzero;fill:url(#linear56);" d="M 53.148438 21.726562 L 55.101562 21.726562 L 55.101562 23.683594 L 53.148438 23.683594 Z M 53.148438 21.726562 "/>
<path style=" stroke:none;fill-rule:nonzero;fill:url(#linear57);" d="M 56.890625 25.523438 L 58.398438 25.523438 L 58.398438 27.03125 L 56.890625 27.03125 Z M 56.890625 25.523438 "/>
<path style=" stroke:none;fill-rule:nonzero;fill:url(#linear58);" d="M 58.898438 22.511719 L 60.40625 22.511719 L 60.40625 24.019531 L 58.898438 24.019531 Z M 58.898438 22.511719 "/>
<path style=" stroke:none;fill-rule:nonzero;fill:url(#linear59);" d="M 54.546875 14.46875 L 56.554688 14.46875 L 56.554688 16.480469 L 54.546875 16.480469 Z M 54.546875 14.46875 "/>
<path style=" stroke:none;fill-rule:nonzero;fill:url(#linear60);" d="M 57.671875 18.769531 L 59.402344 18.769531 L 59.402344 20.5 L 57.671875 20.5 Z M 57.671875 18.769531 "/>
<path style=" stroke:none;fill-rule:nonzero;fill:url(#linear61);" d="M 65.429688 21 L 67.328125 21 L 67.328125 22.898438 L 65.429688 22.898438 Z M 65.429688 21 "/>
<path style=" stroke:none;fill-rule:nonzero;fill:url(#linear62);" d="M 62.917969 14.96875 L 64.929688 14.96875 L 64.929688 16.980469 L 62.917969 16.980469 Z M 62.917969 14.96875 "/>
<path style=" stroke:none;fill-rule:nonzero;fill:url(#linear63);" d="M 63.867188 11.566406 L 65.933594 11.566406 L 65.933594 13.632812 L 63.867188 13.632812 Z M 63.867188 11.566406 "/>
<path style=" stroke:none;fill-rule:nonzero;fill:url(#linear64);" d="M 67.441406 13.128906 L 68.945312 13.128906 L 68.945312 14.636719 L 67.441406 14.636719 Z M 67.441406 13.128906 "/>
<path style=" stroke:none;fill-rule:nonzero;fill:url(#linear65);" d="M 66.992188 7.433594 L 68.5 7.433594 L 68.5 8.941406 L 66.992188 8.941406 Z M 66.992188 7.433594 "/>
<path style=" stroke:none;fill-rule:nonzero;fill:url(#linear66);" d="M 72.964844 6.539062 L 72.964844 5.03125 L 71.457031 5.03125 L 71.457031 6.539062 Z M 72.964844 6.539062 "/>
<path style=" stroke:none;fill-rule:nonzero;fill:url(#linear67);" d="M 68.613281 49.761719 L 70.121094 49.761719 L 70.121094 51.269531 L 68.613281 51.269531 Z M 68.613281 49.761719 "/>
<path style=" stroke:none;fill-rule:nonzero;fill:url(#linear68);" d="M 67.441406 48.253906 L 67.441406 47.527344 L 65.933594 47.527344 L 65.933594 49.035156 L 67.105469 49.035156 L 67.105469 49.761719 L 68.613281 49.761719 L 68.613281 48.253906 Z M 67.441406 48.253906 "/>
<path style=" stroke:none;fill-rule:nonzero;fill:url(#linear69);" d="M 63.589844 46.464844 L 61.691406 46.464844 L 61.691406 44.566406 L 62.433594 44.566406 L 60.910156 42.445312 L 59.347656 42.445312 L 59.347656 40.546875 L 59.546875 40.546875 L 58.707031 39.375 L 58.117188 39.375 L 58.117188 38.648438 L 58.566406 38.648438 L 58.566406 37.140625 L 57.101562 37.140625 L 55.820312 35.351562 L 56.722656 35.351562 L 56.722656 35.910156 L 58.230469 35.910156 L 58.230469 34.402344 L 57.503906 34.402344 L 57.503906 33.117188 L 55.269531 33.117188 L 55.269531 34.589844 L 54.882812 34.046875 L 54.882812 35.910156 L 52.984375 35.910156 L 52.984375 34.011719 L 54.859375 34.011719 L 54.09375 32.953125 L 54.042969 32.953125 L 54.042969 32.878906 L 52.570312 30.828125 L 51.308594 30.828125 L 51.308594 29.546875 L 51.648438 29.546875 L 48.796875 25.570312 L 48.796875 26.808594 L 47.511719 26.808594 L 47.511719 25.523438 L 51.085938 25.523438 L 51.085938 27.3125 L 52.871094 27.3125 L 52.871094 26.140625 L 54.378906 26.140625 L 54.378906 24.628906 L 52.871094 24.628906 L 52.871094 25.523438 L 51.195312 25.523438 L 51.195312 23.457031 L 51.8125 23.457031 L 51.8125 21.503906 L 49.855469 21.503906 L 49.855469 23.011719 L 48.90625 23.011719 L 48.90625 21.28125 L 49.019531 21.28125 L 49.019531 20.722656 L 49.96875 20.722656 L 49.96875 19.214844 L 48.460938 19.214844 L 48.460938 19.773438 L 47.511719 19.773438 L 47.511719 21.222656 L 46.171875 21.222656 L 46.171875 21.917969 L 45.472656 20.945312 L 45.835938 20.945312 L 45.835938 18.988281 L 44.070312 18.988281 L 43.667969 18.433594 L 42.878906 18.433594 L 42.878906 17.332031 L 41.183594 14.96875 L 40.085938 14.96875 L 40.085938 14.578125 L 41.875 14.578125 L 41.875 12.734375 L 42.207031 12.734375 L 42.207031 13.519531 L 43.214844 13.519531 L 43.214844 12.734375 L 43.773438 12.734375 L 43.773438 10.835938 L 41.875 10.835938 L 41.875 12.679688 L 39.976562 12.679688 L 39.976562 13.289062 C 39.527344 12.671875 38.945312 12.070312 38.273438 11.507812 L 39.976562 11.507812 L 39.976562 9.609375 L 38.078125 9.609375 L 38.078125 10.222656 L 36.683594 10.222656 L 36.683594 8.492188 L 34.785156 8.492188 L 34.785156 9.367188 C 33.515625 8.820312 32.210938 8.492188 31.046875 8.492188 L 25.742188 8.492188 C 25.742188 8.492188 37.460938 27.398438 37.820312 28.019531 C 38.417969 28.996094 38.417969 31.371094 35.796875 31.640625 C 34.261719 31.609375 32.304688 31.640625 32.304688 31.640625 L 20.664062 31.664062 C 17.574219 31.664062 15.347656 32.355469 13.519531 34.847656 L 0.601562 55.726562 L 10.367188 55.726562 C 13.457031 55.726562 15.351562 53.695312 17.195312 51.214844 L 23.910156 42.382812 C 24.941406 41.089844 29.585938 36.011719 35.0625 41.5625 L 42.636719 50.914062 C 44.457031 53.414062 48.441406 55.71875 51.53125 55.734375 L 57.726562 55.734375 L 57.726562 54.5625 L 58.953125 54.5625 L 58.953125 55.734375 L 70.453125 55.734375 L 63.585938 46.175781 L 63.585938 46.464844 Z M 55.269531 36.859375 L 56.050781 36.859375 L 56.050781 37.644531 L 55.269531 37.644531 Z M 53.875 38.144531 L 53.875 39.597656 L 52.425781 39.597656 L 52.425781 38.144531 Z M 51.753906 32.003906 L 52.535156 32.003906 L 52.535156 32.785156 L 51.753906 32.785156 Z M 47.34375 36.078125 L 49.910156 36.078125 L 49.910156 38.648438 L 47.34375 38.648438 Z M 49.6875 35.242188 L 49.6875 34.460938 L 50.46875 34.460938 L 50.46875 35.242188 Z M 48.347656 31.386719 L 50.246094 31.386719 L 50.246094 33.285156 L 48.347656 33.285156 Z M 48.125 29.15625 L 48.125 29.9375 L 47.34375 29.9375 L 47.34375 29.15625 Z M 48.683594 23.960938 L 48.683594 25.417969 L 47.640625 23.960938 Z M 45.558594 23.179688 L 46.171875 23.179688 L 46.171875 23.960938 L 46.84375 23.960938 L 46.84375 24.464844 L 45.558594 24.464844 Z M 46.675781 26.921875 L 46.675781 28.820312 L 44.777344 28.820312 L 44.777344 26.921875 Z M 43.828125 20.667969 L 43.882812 20.667969 L 43.882812 20.945312 L 45.109375 20.945312 L 45.109375 21.953125 L 43.828125 21.953125 Z M 41.875 18.878906 L 41.875 20.164062 L 40.589844 20.164062 L 40.589844 18.878906 Z M 38.246094 20.386719 L 38.246094 19.605469 L 39.027344 19.605469 L 39.027344 20.386719 Z M 41.261719 24.351562 L 39.976562 24.351562 L 39.976562 23.066406 L 41.261719 23.066406 Z M 40.757812 15.863281 L 40.757812 17.484375 L 39.140625 17.484375 L 39.140625 15.863281 Z M 39.195312 12.847656 L 39.195312 13.964844 L 38.078125 13.964844 L 38.078125 12.847656 Z M 37.574219 17.261719 L 36.792969 17.261719 L 36.792969 16.480469 L 37.574219 16.480469 Z M 41.484375 39.988281 L 40.699219 39.988281 L 40.699219 39.207031 L 41.484375 39.207031 Z M 42.097656 21.894531 L 41.316406 21.894531 L 41.316406 21.113281 L 42.097656 21.113281 Z M 43.546875 42.335938 L 42.765625 42.335938 L 42.765625 41.550781 L 43.546875 41.550781 Z M 43.941406 36.636719 L 42.488281 36.636719 L 42.488281 35.1875 L 43.941406 35.1875 Z M 43.996094 25.972656 L 42.710938 25.972656 L 42.710938 24.6875 L 43.996094 24.6875 Z M 45.613281 39.207031 L 44.164062 39.207031 L 44.164062 37.753906 L 45.613281 37.753906 Z M 47.34375 43.675781 L 45.894531 43.675781 L 45.894531 42.222656 L 47.34375 42.222656 Z M 47.566406 40.824219 L 46.785156 40.824219 L 46.785156 40.042969 L 47.566406 40.042969 Z M 51.417969 42.667969 L 49.523438 42.667969 L 49.523438 40.769531 L 51.417969 40.769531 Z M 51.921875 36.527344 L 51.140625 36.527344 L 51.140625 35.746094 L 51.921875 35.746094 Z M 53.539062 44.789062 L 52.425781 44.789062 L 52.425781 43.675781 L 53.539062 43.675781 Z M 54.878906 46.746094 L 54.097656 46.746094 L 54.097656 45.964844 L 54.878906 45.964844 Z M 54.992188 43.339844 L 53.539062 43.339844 L 53.539062 41.886719 L 54.992188 41.886719 Z M 55.269531 38.925781 L 57.167969 38.925781 L 57.167969 40.824219 L 55.269531 40.824219 Z M 57.839844 41.886719 L 57.839844 42.667969 L 57.058594 42.667969 L 57.058594 41.886719 Z M 55.605469 48.867188 L 56.386719 48.867188 L 56.386719 49.648438 L 55.605469 49.648438 Z M 57.613281 52.273438 L 56.386719 52.273438 L 56.386719 51.042969 L 57.613281 51.042969 Z M 56.777344 47.917969 L 56.777344 47.136719 L 57.558594 47.136719 L 57.558594 47.917969 Z M 58.117188 45.292969 L 56.21875 45.292969 L 56.21875 43.394531 L 58.117188 43.394531 Z M 59.347656 46.355469 L 60.128906 46.355469 L 60.128906 47.136719 L 59.347656 47.136719 Z M 60.128906 52.328125 L 59.347656 52.328125 L 59.347656 51.546875 L 60.128906 51.546875 Z M 60.40625 49.703125 L 59.625 49.703125 L 59.625 48.921875 L 60.40625 48.921875 Z M 60.574219 43.394531 L 61.355469 43.394531 L 61.355469 44.175781 L 60.574219 44.175781 Z M 61.632812 54.953125 L 60.851562 54.953125 L 60.851562 54.171875 L 61.632812 54.171875 Z M 65.375 51.882812 L 66.15625 51.882812 L 66.15625 52.664062 L 65.375 52.664062 Z M 63.980469 51.324219 L 62.082031 51.324219 L 62.082031 49.425781 L 63.980469 49.425781 Z M 63.980469 51.324219 "/>
<path style=" stroke:none;fill-rule:nonzero;fill:rgb(4.313726%,72.549021%,62.352943%);fill-opacity:1;" d="M 3.882812 63.917969 L 1.71875 63.917969 L 1.28125 64.933594 L 0 64.933594 L 2.28125 60.042969 L 3.292969 60.042969 L 5.582031 64.933594 L 4.320312 64.933594 Z M 3.472656 62.960938 L 2.800781 61.394531 L 2.128906 62.960938 Z M 3.472656 62.960938 "/>
<path style=" stroke:none;fill-rule:nonzero;fill:rgb(4.313726%,72.549021%,62.352943%);fill-opacity:1;" d="M 7.605469 60.042969 L 11.011719 60.042969 L 11.011719 61.039062 L 8.863281 61.039062 L 8.863281 61.941406 L 10.871094 61.941406 L 10.871094 62.941406 L 8.863281 62.941406 L 8.863281 64.933594 L 7.605469 64.933594 Z M 7.605469 60.042969 "/>
<path style=" stroke:none;fill-rule:nonzero;fill:rgb(4.313726%,72.549021%,62.352943%);fill-opacity:1;" d="M 15.890625 62.753906 L 15.890625 64.929688 L 14.617188 64.929688 L 14.617188 62.753906 L 12.5625 60.042969 L 14 60.042969 L 15.246094 61.742188 L 16.507812 60.042969 L 17.957031 60.042969 Z M 15.890625 62.753906 "/>
<path style=" stroke:none;fill-rule:nonzero;fill:rgb(4.313726%,72.549021%,62.352943%);fill-opacity:1;" d="M 22.367188 63.917969 L 20.207031 63.917969 L 19.769531 64.933594 L 18.484375 64.933594 L 20.765625 60.042969 L 21.777344 60.042969 L 24.066406 64.933594 L 22.804688 64.933594 Z M 21.960938 62.960938 L 21.289062 61.394531 L 20.613281 62.960938 Z M 21.960938 62.960938 "/>
<path style=" stroke:none;fill-rule:nonzero;fill:rgb(4.313726%,72.549021%,62.352943%);fill-opacity:1;" d="M 30.453125 60.042969 L 30.453125 64.933594 L 29.507812 64.933594 L 27.277344 62.136719 L 27.277344 64.933594 L 26.089844 64.933594 L 26.089844 60.042969 L 27.019531 60.042969 L 29.261719 62.835938 L 29.261719 60.042969 Z M 30.453125 60.042969 "/>
<path style=" stroke:none;fill-rule:nonzero;fill:rgb(4.313726%,72.549021%,62.352943%);fill-opacity:1;" d="M 36.359375 63.917969 L 34.199219 63.917969 L 33.761719 64.933594 L 32.476562 64.933594 L 34.757812 60.042969 L 35.773438 60.042969 L 38.058594 64.933594 L 36.796875 64.933594 Z M 35.953125 62.960938 L 35.277344 61.394531 L 34.605469 62.960938 Z M 35.953125 62.960938 "/>
<path style=" stroke:none;fill-rule:nonzero;fill:rgb(4.313726%,72.549021%,62.352943%);fill-opacity:1;" d="M 40.082031 60.042969 L 41.359375 60.042969 L 41.359375 63.898438 L 43.441406 63.898438 L 43.441406 64.933594 L 40.082031 64.933594 Z M 40.082031 60.042969 "/>
<path style=" stroke:none;fill-rule:nonzero;fill:rgb(4.313726%,72.549021%,62.352943%);fill-opacity:1;" d="M 47.355469 62.753906 L 47.355469 64.929688 L 46.082031 64.929688 L 46.082031 62.753906 L 44.027344 60.042969 L 45.464844 60.042969 L 46.710938 61.742188 L 47.972656 60.042969 L 49.421875 60.042969 Z M 47.355469 62.753906 "/>
<path style=" stroke:none;fill-rule:nonzero;fill:rgb(4.313726%,72.549021%,62.352943%);fill-opacity:1;" d="M 52.398438 61.074219 L 50.9375 61.074219 L 50.9375 60.042969 L 55.152344 60.042969 L 55.152344 61.074219 L 53.691406 61.074219 L 53.691406 64.933594 L 52.398438 64.933594 Z M 52.398438 61.074219 "/>
<path style=" stroke:none;fill-rule:nonzero;fill:rgb(4.313726%,72.549021%,62.352943%);fill-opacity:1;" d="M 57.410156 60.042969 L 58.6875 60.042969 L 58.6875 64.933594 L 57.410156 64.933594 Z M 57.410156 60.042969 "/>
<path style=" stroke:none;fill-rule:nonzero;fill:rgb(4.313726%,72.549021%,62.352943%);fill-opacity:1;" d="M 62.351562 64.683594 C 61.976562 64.472656 61.6875 64.179688 61.484375 63.800781 C 61.285156 63.421875 61.183594 62.984375 61.183594 62.484375 C 61.183594 61.984375 61.285156 61.546875 61.484375 61.167969 C 61.6875 60.792969 61.976562 60.5 62.351562 60.292969 C 62.730469 60.085938 63.171875 59.980469 63.679688 59.980469 C 64 59.980469 64.308594 60.027344 64.605469 60.125 C 64.90625 60.222656 65.148438 60.351562 65.339844 60.511719 L 64.941406 61.414062 C 64.539062 61.132812 64.128906 60.992188 63.707031 60.992188 C 63.308594 60.992188 63.007812 61.117188 62.796875 61.367188 C 62.585938 61.617188 62.480469 61.988281 62.480469 62.484375 C 62.480469 62.980469 62.585938 63.351562 62.796875 63.605469 C 63.007812 63.855469 63.308594 63.984375 63.707031 63.984375 C 64.128906 63.984375 64.539062 63.839844 64.941406 63.558594 L 65.339844 64.460938 C 65.148438 64.621094 64.90625 64.75 64.605469 64.847656 C 64.308594 64.945312 64 64.996094 63.679688 64.996094 C 63.171875 64.996094 62.730469 64.890625 62.351562 64.683594 Z M 62.351562 64.683594 "/>
<path style=" stroke:none;fill-rule:nonzero;fill:rgb(4.313726%,72.549021%,62.352943%);fill-opacity:1;" d="M 68.320312 64.847656 C 67.960938 64.75 67.671875 64.621094 67.453125 64.460938 L 67.847656 63.558594 C 68.082031 63.707031 68.335938 63.820312 68.605469 63.898438 C 68.871094 63.976562 69.140625 64.015625 69.414062 64.015625 C 69.6875 64.015625 69.902344 63.976562 70.046875 63.902344 C 70.195312 63.824219 70.265625 63.71875 70.265625 63.578125 C 70.265625 63.453125 70.203125 63.351562 70.070312 63.273438 C 69.9375 63.195312 69.6875 63.117188 69.316406 63.039062 C 68.859375 62.941406 68.5 62.824219 68.242188 62.691406 C 67.984375 62.558594 67.800781 62.398438 67.699219 62.21875 C 67.59375 62.039062 67.542969 61.816406 67.542969 61.554688 C 67.542969 61.253906 67.625 60.984375 67.792969 60.746094 C 67.964844 60.507812 68.203125 60.320312 68.507812 60.183594 C 68.816406 60.046875 69.167969 59.980469 69.566406 59.980469 C 69.917969 59.980469 70.257812 60.027344 70.589844 60.128906 C 70.921875 60.226562 71.175781 60.355469 71.363281 60.511719 L 70.972656 61.414062 C 70.53125 61.109375 70.0625 60.957031 69.574219 60.957031 C 69.335938 60.957031 69.148438 61 69.003906 61.09375 C 68.859375 61.183594 68.789062 61.300781 68.789062 61.449219 C 68.789062 61.539062 68.816406 61.609375 68.867188 61.664062 C 68.917969 61.71875 69.011719 61.773438 69.148438 61.828125 C 69.289062 61.882812 69.496094 61.933594 69.765625 61.992188 C 70.210938 62.085938 70.558594 62.203125 70.8125 62.339844 C 71.066406 62.476562 71.246094 62.636719 71.355469 62.816406 C 71.460938 62.996094 71.511719 63.210938 71.511719 63.460938 C 71.511719 63.941406 71.328125 64.316406 70.960938 64.589844 C 70.589844 64.859375 70.070312 64.996094 69.398438 64.996094 C 69.035156 64.996094 68.671875 64.945312 68.316406 64.847656 Z M 68.320312 64.847656 "/>
</g>
</svg>
